<svg width="62" height="62" viewBox="0 0 62 62" fill="none" xmlns="http://www.w3.org/2000/svg">
<path fill-rule="evenodd" clip-rule="evenodd" d="M35.2885 1.80176C32.8862 -0.600586 28.9918 -0.600586 26.5895 1.80176L1.8016 26.5896C-0.600314 28.9915 -0.600752 32.8863 1.8016 35.2887L26.5895 60.0765C28.9914 62.4785 32.8866 62.4785 35.2885 60.0765L60.0764 35.2887C62.4787 32.8863 62.4783 28.9915 60.0764 26.5896L35.2885 1.80176ZM27.5895 2.8018C29.4366 0.954763 32.4418 0.955159 34.2885 2.8018L59.0763 27.5897C60.923 29.4363 60.923 32.442 59.0763 34.2886L34.2885 59.0765C32.4418 60.9231 29.4361 60.9231 27.5895 59.0765L2.80165 34.2886C0.954607 32.4416 0.955003 29.4363 2.80165 27.5897L27.5895 2.8018Z" fill="white"/>
<path fill-rule="evenodd" clip-rule="evenodd" d="M30.8556 11.8043L30.5177 11.6099L24.9451 14.9065L24.9445 14.9068L24.576 15.1269V21.2551L19.5506 24.2071L19.55 24.2075L19.1794 24.4272V30.6385L13.7734 33.81V40.693L19.8421 44.2598L20.2254 44.0441L25.3059 41.1651L30.3651 44.1386L30.7422 44.3613L31.1244 44.1462L36.3253 41.1996L41.1709 44.0476L41.548 44.2703L41.9302 44.0551L47.3372 40.9917L47.3382 40.9912L47.6806 40.8V33.7972L47.2979 33.5843L42.0546 30.6457V24.4013L41.6756 24.1874L36.6898 21.3482V15.1016L36.3131 14.8851L30.8569 11.805L30.8556 11.8043ZM33.8158 23.7388L35.9855 22.4995L40.0287 24.8019L36.0165 27.1316L32.0269 24.8054L33.8158 23.7388ZM28.6991 24.4476L29.3148 24.8123L25.2533 27.1347L21.1987 24.8059L25.174 22.4705L28.6991 24.4476ZM26.5868 15.5018L30.5303 13.1663L34.6535 15.4984L30.6089 17.8295L26.5868 15.5018ZM31.2836 23.6301V19.0052L35.3456 16.6649V21.2563L33.2127 22.5282L31.2836 23.6301ZM29.9372 19.0039L25.9248 16.6828V21.2311L29.5255 23.3645L29.9372 23.5953V19.0039ZM30.0268 25.9658L25.9279 28.3104V32.9393L30.0268 30.6148V25.9658ZM36.8748 39.9618L40.8835 42.3178V37.7046L36.8748 35.4042V39.9618ZM35.4814 35.476L31.4213 37.7963V42.4302L35.4814 40.1298V35.476ZM36.6906 32.9318V28.3078L40.7117 25.9729V30.6168L36.6906 32.9318ZM35.3459 28.3066L31.3721 25.9906V30.5381L35.3459 32.9101V28.3066ZM15.7936 34.19L19.7727 31.8551L23.9335 34.1866L19.852 36.519L15.7936 34.19ZM20.5272 42.3245V37.6946L24.632 35.3489V39.9988L20.5272 42.3245ZM19.1796 37.6951L15.1252 35.369V39.9201L19.1796 42.303V37.6951ZM37.4909 34.2019L41.4745 31.8645L45.6395 34.1984L41.5533 36.5331L37.4909 34.2019ZM42.2271 42.3392V37.7053L46.3359 35.3572V40.0112L42.2271 42.3392ZM26.6851 34.2929L30.6688 31.9556L34.8337 34.2894L30.7475 36.6242L26.6851 34.2929ZM30.0777 37.7956L26.0192 35.4667V40.0236L30.0777 42.4088V37.7956ZM24.5781 28.3092L20.5288 25.9831V30.5333L24.5803 32.9174L24.5781 28.3092Z" fill="white"/>
</svg>
