<svg width="197" height="63" viewBox="0 0 197 63" fill="none" xmlns="http://www.w3.org/2000/svg">
<path fill-rule="evenodd" clip-rule="evenodd" d="M35.2885 2.67969C32.8862 0.277344 28.9918 0.277344 26.5895 2.67969L1.8016 27.4676C-0.600314 29.8695 -0.600752 33.7642 1.8016 36.1666L26.5895 60.9545C28.9914 63.3564 32.8866 63.3564 35.2885 60.9545L60.0764 36.1666C62.4787 33.7642 62.4783 29.8695 60.0764 27.4676L35.2885 2.67969ZM27.5895 3.67973C29.4366 1.83269 32.4418 1.83309 34.2885 3.67973L59.0763 28.4676C60.923 30.3142 60.923 33.3199 59.0763 35.1665L34.2885 59.9544C32.4418 61.801 29.4361 61.801 27.5895 59.9544L2.80165 35.1665C0.954607 33.3195 0.955003 30.3142 2.80165 28.4676L27.5895 3.67973Z" fill="#264C2D"/>
<path fill-rule="evenodd" clip-rule="evenodd" d="M30.8556 12.6823L30.5177 12.4878L24.9451 15.7844L24.9445 15.7848L24.576 16.0048V22.1331L19.5506 25.085L19.55 25.0854L19.1794 25.3051V31.5165L13.7734 34.688V41.5709L19.8421 45.1378L20.2254 44.922L25.3059 42.043L30.3651 45.0165L30.7422 45.2392L31.1244 45.0241L36.3253 42.0775L41.1709 44.9255L41.548 45.1482L41.9302 44.9331L47.3372 41.8696L47.3382 41.8691L47.6806 41.6779V34.6752L47.2979 34.4622L42.0546 31.5237V25.2792L41.6756 25.0654L36.6898 22.2261V15.9795L36.3131 15.7631L30.8569 12.683L30.8556 12.6823ZM33.8158 24.6168L35.9855 23.3775L40.0287 25.6798L36.0165 28.0095L32.0269 25.6833L33.8158 24.6168ZM28.6991 25.3255L29.3148 25.6902L25.2533 28.0126L21.1987 25.6838L25.174 23.3485L28.6991 25.3255ZM26.5868 16.3797L30.5303 14.0442L34.6535 16.3763L30.6089 18.7074L26.5868 16.3797ZM31.2836 24.508V19.8832L35.3456 17.5429V22.1343L33.2127 23.4061L31.2836 24.508ZM29.9372 19.8819L25.9248 17.5607V22.1091L29.5255 24.2424L29.9372 24.4733V19.8819ZM30.0268 26.8438L25.9279 29.1883V33.8173L30.0268 31.4928V26.8438ZM36.8748 40.8398L40.8835 43.1957V38.5825L36.8748 36.2822V40.8398ZM35.4814 36.354L31.4213 38.6742V43.3082L35.4814 41.0077V36.354ZM36.6906 33.8097V29.1857L40.7117 26.8508V31.4947L36.6906 33.8097ZM35.3459 29.1845L31.3721 26.8685V31.416L35.3459 33.7881V29.1845ZM15.7936 35.068L19.7727 32.733L23.9335 35.0646L19.852 37.3969L15.7936 35.068ZM20.5272 43.2024V38.5726L24.632 36.2268V40.8767L20.5272 43.2024ZM19.1796 38.5731L15.1252 36.2469V40.7981L19.1796 43.1809V38.5731ZM37.4909 35.0798L41.4745 32.7425L45.6395 35.0763L41.5533 37.4111L37.4909 35.0798ZM42.2271 43.2171V38.5832L46.3359 36.2351V40.8891L42.2271 43.2171ZM26.6851 35.1709L30.6688 32.8335L34.8337 35.1674L30.7475 37.5021L26.6851 35.1709ZM30.0777 38.6735L26.0192 36.3446V40.9015L30.0777 43.2867V38.6735ZM24.5781 29.1871L20.5288 26.8611V31.4112L24.5803 33.7953L24.5781 29.1871Z" fill="#264C2D"/>
<path d="M95.0373 45.2864L91.7268 36.7793H80.8331L77.5611 45.2864H74.0581L84.7979 17.6863H87.9159L98.6172 45.2864H95.0373ZM90.6875 33.6998L87.608 25.3851C87.531 25.1798 87.4027 24.8077 87.223 24.2688C87.0434 23.7298 86.8638 23.1781 86.6841 22.6135C86.5302 22.0233 86.4018 21.5742 86.2992 21.2662C86.1196 22.0618 85.9143 22.8445 85.6833 23.6144C85.4523 24.3586 85.2599 24.9488 85.1059 25.3851L81.9879 33.6998H90.6875Z" fill="#264C2D"/>
<path d="M103.532 45.2864V17.8018H106.996V42.2069H119.006V45.2864H103.532Z" fill="#264C2D"/>
<path d="M140.232 45.2864H124.873V17.8018H140.232V20.8428H128.338V29.4269H139.54V32.4295H128.338V42.2454H140.232V45.2864Z" fill="#264C2D"/>
<path d="M155.001 17.8018C158.414 17.8018 160.929 18.4562 162.546 19.765C164.188 21.0481 165.01 22.9985 165.01 25.616C165.01 27.0788 164.74 28.2978 164.201 29.273C163.662 30.2481 162.969 31.0308 162.123 31.6211C161.301 32.1857 160.429 32.6348 159.505 32.9684L167.05 45.2864H163.008L156.348 33.9307H150.882V45.2864H147.418V17.8018H155.001ZM154.809 20.8043H150.882V31.0052H155.001C157.234 31.0052 158.863 30.5689 159.89 29.6964C160.916 28.7982 161.43 27.4894 161.43 25.77C161.43 23.9736 160.891 22.7033 159.813 21.9591C158.735 21.1892 157.067 20.8043 154.809 20.8043Z" fill="#264C2D"/>
<path d="M196.5 31.5056C196.5 34.3542 196.013 36.8434 195.038 38.9734C194.088 41.0778 192.677 42.7202 190.803 43.9006C188.93 45.0811 186.607 45.6714 183.836 45.6714C180.987 45.6714 178.613 45.0811 176.714 43.9006C174.841 42.7202 173.442 41.0649 172.519 38.9349C171.595 36.8049 171.133 34.3157 171.133 31.4671C171.133 28.6442 171.595 26.1806 172.519 24.0763C173.442 21.972 174.841 20.3295 176.714 19.1491C178.613 17.9686 181 17.3783 183.874 17.3783C186.62 17.3783 188.93 17.9686 190.803 19.1491C192.677 20.3039 194.088 21.9463 195.038 24.0763C196.013 26.1806 196.5 28.6571 196.5 31.5056ZM174.79 31.5056C174.79 34.9701 175.521 37.7031 176.984 39.7048C178.447 41.6808 180.731 42.6688 183.836 42.6688C186.967 42.6688 189.251 41.6808 190.688 39.7048C192.125 37.7031 192.843 34.9701 192.843 31.5056C192.843 28.0412 192.125 25.3338 190.688 23.3834C189.251 21.4074 186.979 20.4194 183.874 20.4194C180.769 20.4194 178.472 21.4074 176.984 23.3834C175.521 25.3338 174.79 28.0412 174.79 31.5056Z" fill="#264C2D"/>
<path fill-rule="evenodd" clip-rule="evenodd" d="M94.6948 45.7869L91.3843 37.2797H81.1765L77.9045 45.7869H73.3262L84.4554 17.1859H88.2584L99.3477 45.7869H94.6948ZM80.8331 36.7793H91.7268L95.0373 45.2864H98.6172L87.9159 17.6863H84.7979L74.0581 45.2864H77.5611L80.8331 36.7793ZM86.0653 22.2371C85.9468 22.7007 85.8197 23.1598 85.6833 23.6144C85.4523 24.3586 85.2599 24.9488 85.1059 25.3851L81.9879 33.6998H90.6875L87.608 25.3851C87.531 25.1798 87.4027 24.8077 87.223 24.2688C87.0434 23.7298 86.8638 23.1781 86.6841 22.6135C86.6491 22.4792 86.6151 22.3522 86.5827 22.2326C86.4728 21.8262 86.3785 21.5041 86.2992 21.2662C86.2256 21.592 86.1475 21.9156 86.0653 22.2371ZM86.3347 23.1645C86.2789 23.3632 86.2215 23.5611 86.1623 23.7582L86.161 23.7627C85.9292 24.5095 85.7346 25.1066 85.5775 25.5516L85.5743 25.5608L82.7097 33.1993H89.9683L87.1392 25.5608C87.1391 25.5605 87.1393 25.5611 87.1392 25.5608C87.0585 25.3456 86.9273 24.9647 86.748 24.427C86.6102 24.0136 86.4725 23.5928 86.3347 23.1645ZM103.031 45.7869V17.3014H107.496V41.7065H119.507V45.7869H103.031ZM106.996 42.2069V17.8018H103.532V45.2864H119.006V42.2069H106.996ZM140.733 45.7869H124.373V17.3014H140.733V21.3432H128.838V28.9265H140.04V32.9299H128.838V41.745H140.733V45.7869ZM128.338 42.2454V32.4295H139.54V29.4269H128.338V20.8428H140.232V17.8018H124.873V45.2864H140.232V42.2454H128.338ZM163.008 45.2864L156.348 33.9307H150.882V45.2864H147.418V17.8018H155.001C158.414 17.8018 160.929 18.4562 162.546 19.765C164.188 21.0481 165.01 22.9985 165.01 25.616C165.01 27.0788 164.74 28.2978 164.201 29.273C163.662 30.2481 162.969 31.0308 162.123 31.6211C161.443 32.0881 160.729 32.476 159.979 32.785C159.823 32.8496 159.665 32.9107 159.505 32.9684L167.05 45.2864H163.008ZM160.244 33.2169L167.943 45.7869H162.721L156.062 34.4311H151.382V45.7869H146.917V17.3014H155.001C158.459 17.3014 161.11 17.9608 162.857 19.3733C164.649 20.7751 165.51 22.8895 165.51 25.616C165.51 27.1378 165.23 28.4461 164.639 29.515C164.066 30.5518 163.323 31.3942 162.408 32.0316L162.406 32.0335C161.72 32.5049 160.999 32.8995 160.244 33.2169ZM159.522 22.3663C158.57 21.6866 157.028 21.3047 154.808 21.3047H151.382V30.5048H155.001C157.185 30.5048 158.669 30.0751 159.563 29.3174C160.452 28.5381 160.929 27.384 160.929 25.77C160.929 24.0715 160.424 22.9894 159.528 22.3709L159.522 22.3663ZM159.89 29.6964C158.863 30.5689 157.234 31.0052 155.001 31.0052H150.882V20.8043H154.809C157.067 20.8043 158.735 21.1892 159.813 21.9591C160.891 22.7033 161.43 23.9736 161.43 25.77C161.43 27.4894 160.916 28.7982 159.89 29.6964ZM176.45 44.3257L176.447 44.324C174.485 43.0872 173.021 41.3517 172.059 39.1341C171.103 36.9287 170.632 34.369 170.632 31.4671C170.632 28.5904 171.103 26.0556 172.06 23.8751C173.023 21.6829 174.486 19.9616 176.447 18.7257L176.45 18.7241C178.448 17.4821 180.933 16.8779 183.874 16.8779C186.691 16.8779 189.098 17.4836 191.068 18.7244C193.03 19.9346 194.505 21.6555 195.493 23.8693C196.504 26.0521 197 28.6021 197 31.5056C197 34.4106 196.503 36.9735 195.493 39.1813C194.504 41.3701 193.029 43.0893 191.07 44.324C189.099 45.5661 186.678 46.1718 183.836 46.1718C180.919 46.1718 178.447 45.5673 176.45 44.3257ZM195.038 38.9734L195.493 39.1792C195.493 39.1799 195.493 39.1806 195.493 39.1813C195.492 39.1814 195.493 39.1811 195.493 39.1813L195.038 38.9734ZM176.714 43.9006C174.841 42.7202 173.442 41.0649 172.519 38.9349C171.595 36.8049 171.133 34.3157 171.133 31.4671C171.133 28.6442 171.595 26.1806 172.519 24.0763C173.442 21.972 174.841 20.3295 176.714 19.1491C178.613 17.9686 181 17.3783 183.874 17.3783C186.62 17.3783 188.93 17.9686 190.803 19.1491C192.677 20.3039 194.088 21.9463 195.038 24.0763C196.013 26.1806 196.5 28.6571 196.5 31.5056C196.5 34.3542 196.013 36.8434 195.038 38.9734C194.088 41.0778 192.677 42.7202 190.803 43.9006C188.93 45.0811 186.607 45.6714 183.836 45.6714C180.987 45.6714 178.613 45.0811 176.714 43.9006ZM190.285 23.6802L190.283 23.6777C188.965 21.8657 186.867 20.9198 183.874 20.9198C180.882 20.9198 178.753 21.8656 177.383 23.6845C176.008 25.5184 175.29 28.1057 175.29 31.5056C175.29 34.9044 176.008 37.5208 177.387 39.4087C178.731 41.2231 180.844 42.1684 183.836 42.1684C186.855 42.1684 188.965 41.2219 190.282 39.4119C191.637 37.5236 192.343 34.9059 192.343 31.5056C192.343 28.1036 191.636 25.5147 190.285 23.6802ZM176.984 39.7048C175.521 37.7031 174.79 34.9701 174.79 31.5056C174.79 28.0412 175.521 25.3338 176.984 23.3834C178.472 21.4074 180.769 20.4194 183.874 20.4194C186.979 20.4194 189.251 21.4074 190.688 23.3834C192.125 25.3338 192.843 28.0412 192.843 31.5056C192.843 34.9701 192.125 37.7031 190.688 39.7048C189.251 41.6808 186.967 42.6688 183.836 42.6688C180.731 42.6688 178.447 41.6808 176.984 39.7048Z" fill="#264C2D"/>
</svg>
