<svg width="215" height="215" viewBox="0 0 215 215" fill="none" xmlns="http://www.w3.org/2000/svg">
<path fill-rule="evenodd" clip-rule="evenodd" d="M122.613 6.26035C114.266 -2.08678 100.734 -2.08678 92.3872 6.26035L6.25981 92.3878C-2.08584 100.733 -2.08736 114.266 6.25981 122.613L92.3872 208.741C100.733 217.086 114.267 217.086 122.613 208.741L208.74 122.613C217.087 114.266 217.086 100.733 208.74 92.3878L122.613 6.26035ZM95.862 9.7351C102.28 3.3174 112.722 3.31878 119.138 9.7351L205.265 95.8625C211.682 102.279 211.682 112.722 205.265 119.139L119.138 205.266C112.722 211.682 102.278 211.682 95.862 205.266L9.73455 119.139C3.31686 112.721 3.31823 102.279 9.73455 95.8625L95.862 9.7351Z" fill="#FAFAF9"/>
<path fill-rule="evenodd" clip-rule="evenodd" d="M107.818 45.624L106.733 45L88.8505 55.5789L88.8485 55.5801L87.666 56.2862V75.9521L71.5393 85.4251L71.5373 85.4263L70.3479 86.1315V106.064L53 116.241V138.329L72.4747 149.775L73.7045 149.083L90.0083 139.844L106.244 149.386L107.454 150.101L108.68 149.41L125.37 139.955L140.92 149.094L142.13 149.809L143.356 149.118L160.708 139.288L160.711 139.286L161.81 138.672V116.2L160.581 115.517L143.756 106.087V86.0483L142.539 85.362L126.54 76.2507V56.2051L125.331 55.5105L107.822 45.6264L107.818 45.624ZM117.317 83.9225L124.28 79.9455L137.254 87.3338L124.379 94.8098L111.576 87.345L117.317 83.9225ZM100.897 86.1967L102.873 87.3672L89.8393 94.8199L76.8279 87.3465L89.5849 79.8524L100.897 86.1967ZM94.1186 57.4894L106.774 49.9946L120.005 57.4785L107.026 64.9591L94.1186 57.4894ZM109.191 83.5734V68.732L122.226 61.222V75.9559L115.381 80.0373L109.191 83.5734ZM104.87 68.7279L91.9944 61.2793V75.8751L103.549 82.7212L104.87 83.4619V68.7279ZM105.158 91.069L92.0042 98.5927V113.447L105.158 105.988V91.069ZM127.133 135.983L139.997 143.543V128.739L127.133 121.357V135.983ZM122.662 121.588L109.633 129.033V143.904L122.662 136.522V121.588ZM126.542 113.423V98.5845L139.446 91.0915V105.994L126.542 113.423ZM122.227 98.5806L109.475 91.1483V105.742L122.227 113.354V98.5806ZM59.4829 117.461L72.252 109.968L85.6042 117.45L72.5064 124.934L59.4829 117.461ZM74.6733 143.565V128.707L87.8455 121.18V136.101L74.6733 143.565ZM70.3486 128.709L57.3378 121.244V135.849L70.3486 143.496V128.709ZM129.11 117.499L141.894 109.998L155.26 117.488L142.147 124.98L129.11 117.499ZM144.309 143.612V128.741L157.494 121.206V136.141L144.309 143.612ZM94.4342 117.791L107.218 110.29L120.583 117.78L107.471 125.272L94.4342 117.791ZM105.321 129.031L92.2973 121.558V136.181L105.321 143.835V129.031ZM87.6726 98.5888L74.6782 91.1245V105.726L87.6798 113.377L87.6726 98.5888Z" fill="#FAFAF9"/>
</svg>
