<svg width="197" height="62" viewBox="0 0 197 62" fill="none" xmlns="http://www.w3.org/2000/svg">
<path fill-rule="evenodd" clip-rule="evenodd" d="M35.2885 1.80176C32.8862 -0.600586 28.9918 -0.600586 26.5895 1.80176L1.8016 26.5896C-0.600314 28.9915 -0.600752 32.8863 1.8016 35.2887L26.5895 60.0765C28.9914 62.4785 32.8866 62.4785 35.2885 60.0765L60.0764 35.2887C62.4787 32.8863 62.4783 28.9915 60.0764 26.5896L35.2885 1.80176ZM27.5895 2.8018C29.4366 0.954763 32.4418 0.955159 34.2885 2.8018L59.0763 27.5897C60.923 29.4363 60.923 32.442 59.0763 34.2886L34.2885 59.0765C32.4418 60.9231 29.4361 60.9231 27.5895 59.0765L2.80165 34.2886C0.954607 32.4416 0.955003 29.4363 2.80165 27.5897L27.5895 2.8018Z" fill="white"/>
<path fill-rule="evenodd" clip-rule="evenodd" d="M30.8556 11.8043L30.5177 11.6099L24.9451 14.9065L24.9445 14.9068L24.576 15.1269V21.2551L19.5506 24.2071L19.55 24.2075L19.1794 24.4272V30.6385L13.7734 33.81V40.693L19.8421 44.2598L20.2254 44.0441L25.3059 41.1651L30.3651 44.1386L30.7422 44.3613L31.1244 44.1462L36.3253 41.1996L41.1709 44.0476L41.548 44.2703L41.9302 44.0551L47.3372 40.9917L47.3382 40.9912L47.6806 40.8V33.7972L47.2979 33.5843L42.0546 30.6457V24.4013L41.6756 24.1874L36.6898 21.3482V15.1016L36.3131 14.8851L30.8569 11.805L30.8556 11.8043ZM33.8158 23.7388L35.9855 22.4995L40.0287 24.8019L36.0165 27.1316L32.0269 24.8054L33.8158 23.7388ZM28.6991 24.4476L29.3148 24.8123L25.2533 27.1347L21.1987 24.8059L25.174 22.4705L28.6991 24.4476ZM26.5868 15.5018L30.5303 13.1663L34.6535 15.4984L30.6089 17.8295L26.5868 15.5018ZM31.2836 23.6301V19.0052L35.3456 16.6649V21.2563L33.2127 22.5282L31.2836 23.6301ZM29.9372 19.0039L25.9248 16.6828V21.2311L29.5255 23.3645L29.9372 23.5953V19.0039ZM30.0268 25.9658L25.9279 28.3104V32.9393L30.0268 30.6148V25.9658ZM36.8748 39.9618L40.8835 42.3178V37.7046L36.8748 35.4042V39.9618ZM35.4814 35.476L31.4213 37.7963V42.4302L35.4814 40.1298V35.476ZM36.6906 32.9318V28.3078L40.7117 25.9729V30.6168L36.6906 32.9318ZM35.3459 28.3066L31.3721 25.9906V30.5381L35.3459 32.9101V28.3066ZM15.7936 34.19L19.7727 31.8551L23.9335 34.1866L19.852 36.519L15.7936 34.19ZM20.5272 42.3245V37.6946L24.632 35.3489V39.9988L20.5272 42.3245ZM19.1796 37.6951L15.1252 35.369V39.9201L19.1796 42.303V37.6951ZM37.4909 34.2019L41.4745 31.8645L45.6395 34.1984L41.5533 36.5331L37.4909 34.2019ZM42.2271 42.3392V37.7053L46.3359 35.3572V40.0112L42.2271 42.3392ZM26.6851 34.2929L30.6688 31.9556L34.8337 34.2894L30.7475 36.6242L26.6851 34.2929ZM30.0777 37.7956L26.0192 35.4667V40.0236L30.0777 42.4088V37.7956ZM24.5781 28.3092L20.5288 25.9831V30.5333L24.5803 32.9174L24.5781 28.3092Z" fill="white"/>
<path d="M95.0373 44.4085L91.7268 35.9013H80.8331L77.5611 44.4085H74.0581L84.7979 16.8084H87.9159L98.6172 44.4085H95.0373ZM90.6875 32.8218L87.608 24.5071C87.531 24.3018 87.4027 23.9297 87.223 23.3908C87.0434 22.8519 86.8638 22.3002 86.6841 21.7356C86.5302 21.1453 86.4018 20.6963 86.2992 20.3883C86.1196 21.1838 85.9143 21.9665 85.6833 22.7364C85.4523 23.4806 85.2599 24.0709 85.1059 24.5071L81.9879 32.8218H90.6875Z" fill="white"/>
<path d="M103.532 44.4085V16.9238H106.996V41.329H119.006V44.4085H103.532Z" fill="white"/>
<path d="M140.232 44.4085H124.873V16.9238H140.232V19.9649H128.338V28.549H139.54V31.5515H128.338V41.3675H140.232V44.4085Z" fill="white"/>
<path d="M155.001 16.9238C158.414 16.9238 160.929 17.5782 162.546 18.887C164.188 20.1702 165.01 22.1205 165.01 24.7381C165.01 26.2009 164.74 27.4199 164.201 28.395C163.662 29.3702 162.969 30.1529 162.123 30.7432C161.301 31.3077 160.429 31.7568 159.505 32.0904L167.05 44.4085H163.008L156.348 33.0528H150.882V44.4085H147.418V16.9238H155.001ZM154.809 19.9264H150.882V30.1273H155.001C157.234 30.1273 158.863 29.691 159.89 28.8185C160.916 27.9203 161.43 26.6115 161.43 24.8921C161.43 23.0957 160.891 21.8254 159.813 21.0812C158.735 20.3113 157.067 19.9264 154.809 19.9264Z" fill="white"/>
<path d="M196.5 30.6277C196.5 33.4762 196.013 35.9655 195.038 38.0955C194.088 40.1998 192.677 41.8422 190.803 43.0227C188.93 44.2032 186.607 44.7934 183.836 44.7934C180.987 44.7934 178.613 44.2032 176.714 43.0227C174.841 41.8422 173.442 40.187 172.519 38.057C171.595 35.927 171.133 33.4377 171.133 30.5892C171.133 27.7663 171.595 25.3027 172.519 23.1984C173.442 21.094 174.841 19.4516 176.714 18.2711C178.613 17.0907 181 16.5004 183.874 16.5004C186.62 16.5004 188.93 17.0907 190.803 18.2711C192.677 19.426 194.088 21.0684 195.038 23.1984C196.013 25.3027 196.5 27.7791 196.5 30.6277ZM174.79 30.6277C174.79 34.0921 175.521 36.8252 176.984 38.8269C178.447 40.8029 180.731 41.7909 183.836 41.7909C186.967 41.7909 189.251 40.8029 190.688 38.8269C192.125 36.8252 192.843 34.0921 192.843 30.6277C192.843 27.1632 192.125 24.4558 190.688 22.5055C189.251 20.5294 186.979 19.5414 183.874 19.5414C180.769 19.5414 178.472 20.5294 176.984 22.5055C175.521 24.4558 174.79 27.1632 174.79 30.6277Z" fill="white"/>
<path fill-rule="evenodd" clip-rule="evenodd" d="M94.6948 44.9089L91.3843 36.4018H81.1765L77.9045 44.9089H73.3262L84.4554 16.308H88.2584L99.3477 44.9089H94.6948ZM80.8331 35.9013H91.7268L95.0373 44.4085H98.6172L87.9159 16.8084H84.7979L74.0581 44.4085H77.5611L80.8331 35.9013ZM86.0653 21.3592C85.9468 21.8227 85.8197 22.2818 85.6833 22.7364C85.4523 23.4806 85.2599 24.0709 85.1059 24.5071L81.9879 32.8218H90.6875L87.608 24.5071C87.531 24.3018 87.4027 23.9297 87.223 23.3908C87.0434 22.8519 86.8638 22.3002 86.6841 21.7356C86.6491 21.6013 86.6151 21.4743 86.5827 21.3546C86.4728 20.9483 86.3785 20.6262 86.2992 20.3883C86.2256 20.7141 86.1475 21.0377 86.0653 21.3592ZM86.3347 22.2866C86.2789 22.4853 86.2215 22.6832 86.1623 22.8802L86.161 22.8848C85.9292 23.6316 85.7346 24.2287 85.5775 24.6737L85.5743 24.6829L82.7097 32.3214H89.9683L87.1392 24.6829C87.1391 24.6826 87.1393 24.6832 87.1392 24.6829C87.0585 24.4676 86.9273 24.0868 86.748 23.5491C86.6102 23.1357 86.4725 22.7148 86.3347 22.2866ZM103.031 44.9089V16.4234H107.496V40.8286H119.507V44.9089H103.031ZM106.996 41.329V16.9238H103.532V44.4085H119.006V41.329H106.996ZM140.733 44.9089H124.373V16.4234H140.733V20.4653H128.838V28.0486H140.04V32.052H128.838V40.8671H140.733V44.9089ZM128.338 41.3675V31.5515H139.54V28.549H128.338V19.9649H140.232V16.9238H124.873V44.4085H140.232V41.3675H128.338ZM163.008 44.4085L156.348 33.0528H150.882V44.4085H147.418V16.9238H155.001C158.414 16.9238 160.929 17.5782 162.546 18.887C164.188 20.1702 165.01 22.1205 165.01 24.7381C165.01 26.2009 164.74 27.4199 164.201 28.395C163.662 29.3702 162.969 30.1529 162.123 30.7432C161.443 31.2101 160.729 31.5981 159.979 31.9071C159.823 31.9717 159.665 32.0328 159.505 32.0904L167.05 44.4085H163.008ZM160.244 32.339L167.943 44.9089H162.721L156.062 33.5532H151.382V44.9089H146.917V16.4234H155.001C158.459 16.4234 161.11 17.0828 162.857 18.4954C164.649 19.8972 165.51 22.0116 165.51 24.7381C165.51 26.2599 165.23 27.5682 164.639 28.6371C164.066 29.6739 163.323 30.5163 162.408 31.1537L162.406 31.1555C161.72 31.6269 160.999 32.0216 160.244 32.339ZM159.522 21.4884C158.57 20.8086 157.028 20.4268 154.808 20.4268H151.382V29.6268H155.001C157.185 29.6268 158.669 29.1971 159.563 28.4395C160.452 27.6601 160.929 26.506 160.929 24.8921C160.929 23.1936 160.424 22.1114 159.528 21.493L159.522 21.4884ZM159.89 28.8185C158.863 29.691 157.234 30.1273 155.001 30.1273H150.882V19.9264H154.809C157.067 19.9264 158.735 20.3113 159.813 21.0812C160.891 21.8254 161.43 23.0957 161.43 24.8921C161.43 26.6115 160.916 27.9203 159.89 28.8185ZM176.45 43.4477L176.447 43.4461C174.485 42.2092 173.021 40.4738 172.059 38.2561C171.103 36.0507 170.632 33.4911 170.632 30.5892C170.632 27.7125 171.103 25.1777 172.06 22.9972C173.023 20.805 174.486 19.0836 176.447 17.8478L176.45 17.8461C178.448 16.6041 180.933 16 183.874 16C186.691 16 189.098 16.6057 191.068 17.8465C193.03 19.0567 194.505 20.7776 195.493 22.9914C196.504 25.1742 197 27.7242 197 30.6277C197 33.5327 196.503 36.0955 195.493 38.3033C194.504 40.4922 193.029 42.2113 191.07 43.4461C189.099 44.6882 186.678 45.2939 183.836 45.2939C180.919 45.2939 178.447 44.6893 176.45 43.4477ZM195.038 38.0955L195.493 38.3013C195.493 38.302 195.493 38.3027 195.493 38.3033C195.492 38.3035 195.493 38.3032 195.493 38.3033L195.038 38.0955ZM176.714 43.0227C174.841 41.8422 173.442 40.187 172.519 38.057C171.595 35.927 171.133 33.4377 171.133 30.5892C171.133 27.7663 171.595 25.3027 172.519 23.1984C173.442 21.094 174.841 19.4516 176.714 18.2711C178.613 17.0907 181 16.5004 183.874 16.5004C186.62 16.5004 188.93 17.0907 190.803 18.2711C192.677 19.426 194.088 21.0684 195.038 23.1984C196.013 25.3027 196.5 27.7791 196.5 30.6277C196.5 33.4762 196.013 35.9655 195.038 38.0955C194.088 40.1998 192.677 41.8422 190.803 43.0227C188.93 44.2032 186.607 44.7934 183.836 44.7934C180.987 44.7934 178.613 44.2032 176.714 43.0227ZM190.285 22.8023L190.283 22.7998C188.965 20.9878 186.867 20.0419 183.874 20.0419C180.882 20.0419 178.753 20.9877 177.383 22.8066C176.008 24.6405 175.29 27.2278 175.29 30.6277C175.29 34.0265 176.008 36.6429 177.387 38.5307C178.731 40.3452 180.844 41.2905 183.836 41.2905C186.855 41.2905 188.965 40.344 190.282 38.5339C191.637 36.6457 192.343 34.028 192.343 30.6277C192.343 27.2257 191.636 24.6368 190.285 22.8023ZM176.984 38.8269C175.521 36.8252 174.79 34.0921 174.79 30.6277C174.79 27.1632 175.521 24.4558 176.984 22.5055C178.472 20.5294 180.769 19.5414 183.874 19.5414C186.979 19.5414 189.251 20.5294 190.688 22.5055C192.125 24.4558 192.843 27.1632 192.843 30.6277C192.843 34.0921 192.125 36.8252 190.688 38.8269C189.251 40.8029 186.967 41.7909 183.836 41.7909C180.731 41.7909 178.447 40.8029 176.984 38.8269Z" fill="white"/>
</svg>
