<svg width="97" height="70" viewBox="0 0 97 70" fill="none" xmlns="http://www.w3.org/2000/svg">
<g opacity="0.2">
<path d="M0 39.8792C0 35.1049 0.403026 30.4236 1.20908 25.8353C2.07713 21.185 3.59623 16.9997 5.76637 13.2795C7.99852 9.49722 11.0987 6.49003 15.067 4.25788C19.0352 2.02574 24.1506 0.909668 30.413 0.909668C31.7151 0.909668 33.1411 0.97167 34.6912 1.09568C36.3034 1.21969 37.6054 1.4367 38.5975 1.74672V8.72217C37.4814 8.35015 36.2103 8.07113 34.7843 7.88512C33.4202 7.69911 32.0251 7.6061 30.599 7.6061C26.3207 7.6061 22.7555 8.31915 19.9033 9.74524C17.0511 11.1713 14.788 13.1245 13.1138 15.6046C11.5017 18.0848 10.3237 20.937 9.57962 24.1612C8.83557 27.3854 8.37054 30.8266 8.18453 34.4848H8.74257C10.1687 32.3147 12.1528 30.4856 14.695 28.9975C17.2371 27.4474 20.4923 26.6723 24.4606 26.6723C30.227 26.6723 34.8773 28.4394 38.4115 31.9737C41.9457 35.4459 43.7128 40.4062 43.7128 46.8546C43.7128 53.7991 41.7907 59.2554 37.9465 63.2237C34.1642 67.192 29.0489 69.1761 22.6005 69.1761C18.3842 69.1761 14.5709 68.122 11.1607 66.0139C7.7505 63.9058 5.02233 60.6815 2.97619 56.3413C0.992064 52.001 0 46.5136 0 39.8792Z" fill="#3A7A44"/>
<path d="M53.2242 39.8792C53.2242 35.1049 53.6272 30.4236 54.4332 25.8353C55.3013 21.185 56.8204 16.9997 58.9905 13.2795C61.2227 9.49722 64.3229 6.49003 68.2911 4.25788C72.2594 2.02574 77.3747 0.909668 83.6371 0.909668C84.9392 0.909668 86.3653 0.97167 87.9154 1.09568C89.5275 1.21969 90.8296 1.4367 91.8216 1.74672V8.72217C90.7056 8.35015 89.4345 8.07113 88.0084 7.88512C86.6443 7.69911 85.2492 7.6061 83.8231 7.6061C79.5449 7.6061 75.9796 8.31915 73.1274 9.74524C70.2753 11.1713 68.0121 13.1245 66.338 15.6046C64.7259 18.0848 63.5478 20.937 62.8038 24.1612C62.0597 27.3854 61.5947 30.8266 61.4087 34.4848H61.9667C63.3928 32.3147 65.3769 30.4856 67.9191 28.9975C70.4613 27.4474 73.7165 26.6723 77.6847 26.6723C83.4511 26.6723 88.1014 28.4394 91.6356 31.9737C95.1699 35.4459 96.937 40.4062 96.937 46.8546C96.937 53.7991 95.0149 59.2554 91.1706 63.2237C87.3884 67.192 82.273 69.1761 75.8246 69.1761C71.6083 69.1761 67.7951 68.122 64.3849 66.0139C60.9747 63.9058 58.2465 60.6815 56.2003 56.3413C54.2162 52.001 53.2242 46.5136 53.2242 39.8792Z" fill="#3A7A44"/>
</g>
</svg>
